<?xml version="1.0" encoding="utf-8"?>
<!-- Generator: Adobe Illustrator 23.0.1, SVG Export Plug-In . SVG Version: 6.00 Build 0)  -->
<svg version="1.1" id="Layer_1" xmlns="http://www.w3.org/2000/svg" xmlns:xlink="http://www.w3.org/1999/xlink" x="0px" y="0px"
	 viewBox="0 0 170 170" style="enable-background:new 0 0 170 170;" xml:space="preserve">
<style type="text/css">
	.st0{fill:#12B3BD;}
	.st1{opacity:0.1;}
	.st2{clip-path:url(#SVGID_2_);}
	.st3{fill:#881300;}
	.st4{fill:#FEE1B9;}
	.st5{fill:#FFD9AC;}
	.st6{fill:#FFFFFF;}
	.st7{fill:#726658;}
	.st8{fill:#A0352A;}
	.st9{fill:#90C53F;}
	.st10{fill:#5FA63C;}
	.st11{fill:#B7472F;}
	.st12{fill:#FAA21C;}
</style>
<g id="ava_06">
	<g>
		<g>
			<path class="st0" d="M170,85c0-46.9-38.1-85-85-85C38.1,0,0,38.1,0,85c0,46.9,38.1,85,85,85C131.9,170,170,131.9,170,85z"/>
		</g>
	</g>
	<path class="st1" d="M108.1,166.8C143.8,156.7,170,123.9,170,85c0-1.7-0.1-3.3-0.2-5l-55.6-55.6l-11.8,11.8l-7.5-7.5L47.4,76.2
		l14.9,14.9l-14.9,14.9L108.1,166.8z"/>
	<g>
		<defs>
			<path id="SVGID_1_" d="M170,85c0-46.9-38.1-85-85-85C38.1,0,0,38.1,0,85c0,46.9,38.1,85,85,85C131.9,170,170,131.9,170,85z"/>
		</defs>
		<clipPath id="SVGID_2_">
			<use xlink:href="#SVGID_1_"  style="overflow:visible;"/>
		</clipPath>
		<g class="st2">
			<path class="st3" d="M67.6,109.2c0,0,34.8,0,42,0c7.3,0,15.1-31.8,13-45C120.5,51,54.7,42.4,54.7,42.4l-0.5,49.3
				C54.3,91.7,49.7,105.8,67.6,109.2z"/>
			<polygon class="st4" points="98.9,130.7 85.2,170 71.8,130.7 71.8,100.4 98.9,100.4 			"/>
			<polygon class="st5" points="98.9,130.7 98.9,100.4 85.3,100.4 85.3,169.5 			"/>
			<path class="st5" d="M48.8,74c-0.5-4.5,2-8.6,5.5-9.1c3.5-0.5,6.7,2.8,7.2,7.3c0.5,4.5-2,8.6-5.5,9.1
				C52.5,81.8,49.3,78.5,48.8,74z"/>
			<g>
				<g>
					<g>
						<path class="st4" d="M122,73.8c0.6-4.5-1.8-8.5-5.3-8.9c-3.5-0.4-6.8,3-7.4,7.5c-0.6,4.5,1.8,8.5,5.3,8.9
							C118.1,81.7,121.4,78.3,122,73.8z"/>
					</g>
					<g>
						<g>
							<path class="st4" d="M85.4,37.4c0,0-28.8,3.6-28.8,19c0,0,0,20.8,0,26.8c0,6,9.8,23.3,18.6,24c4.4,0.4,10.2,0.9,10.2,0.9
								s5.8-0.5,10.2-0.9c8.8-0.7,18.6-18,18.6-24c0-6,0-26.8,0-26.8C114.2,41,85.4,37.4,85.4,37.4z"/>
						</g>
						<g>
							<path class="st5" d="M114.1,56.4c0,0,0,20.8,0,26.8c0,6-9.8,23.3-18.6,24c-4.4,0.4-10.2,0.9-10.2,0.9V37.4
								C85.3,37.4,114.1,41,114.1,56.4z"/>
						</g>
					</g>
					<g>
						<path class="st6" d="M85.2,96.8c4,0,7.3-2.9,7.3-6.4H77.9C77.9,93.9,81.2,96.8,85.2,96.8z"/>
						<path class="st7" d="M102.3,73.2c0-1.4-1.1-2.5-2.5-2.5c-1.4,0-2.5,1.1-2.5,2.5c0,1.4,1.1,2.5,2.5,2.5
							C101.2,75.7,102.3,74.6,102.3,73.2z"/>
						<path class="st7" d="M73.3,72.2c0-1.4-1.1-2.5-2.5-2.5c-1.4,0-2.5,1.1-2.5,2.5c0,1.4,1.1,2.5,2.5,2.5
							C72.2,74.7,73.3,73.6,73.3,72.2z"/>
						<g>
							<g>
								<g>
									<path class="st8" d="M75.8,67.5c-0.2,0-0.3-0.1-0.4-0.2c-0.9-1.2-2.7-1.9-4.7-1.9s-3.8,0.7-4.7,1.9
										c-0.2,0.2-0.5,0.3-0.7,0.1c-0.2-0.2-0.3-0.5-0.1-0.7c1.1-1.5,3.2-2.4,5.5-2.4c2.3,0,4.4,0.9,5.5,2.4
										c0.2,0.2,0.1,0.5-0.1,0.7C76.1,67.4,75.9,67.5,75.8,67.5z"/>
								</g>
							</g>
						</g>
						<g>
							<g>
								<g>
									<path class="st8" d="M105,67.5c-0.2,0-0.3-0.1-0.4-0.2c-0.9-1.2-2.7-1.9-4.7-1.9c-2,0-3.8,0.7-4.7,1.9
										c-0.2,0.2-0.5,0.3-0.7,0.1c-0.2-0.2-0.3-0.5-0.1-0.7c1.1-1.5,3.2-2.4,5.5-2.4c2.3,0,4.4,0.9,5.5,2.4
										c0.2,0.2,0.1,0.5-0.1,0.7C105.2,67.4,105.1,67.5,105,67.5z"/>
								</g>
							</g>
						</g>
					</g>
				</g>
			</g>
			<path class="st4" d="M85.4,170v-48.4c0,0-10.3-2.6-12.6-10.9c-1.1-4-1.1-3.1-1.1,1c0,12.4-29.3,7.1-37.2,16.7
				C28.3,137,24,170,24,170H85.4z"/>
			<path class="st5" d="M85.3,170v-50.9c0,0,9.8-0.2,11.7-5c0.7-1.7,1.8-6.5,1.8-2.3c0,12.4,29.4,7,37.3,16.6
				c6.2,8.6,10.6,41.6,10.6,41.6H85.3z"/>
			<path class="st9" d="M85.3,142.5c-11.6,0-20.9-10.8-21.2-24.1c-4.6,1.8-15.4,2.5-18.8,4.5V170h39.9V142.5z"/>
			<path class="st10" d="M85.3,142.5c11.6,0,20.9-10.8,21.2-24.1c4.6,1.8,15.4,2.5,18.8,4.5V170H85.3V142.5z"/>
			<path class="st11" d="M85.3,14.2v37.2c0,0-17.1,1.2-27.7,16.4c0,12.9,0,19.6,0,23.9c0,4.3,1.1,15.2,9.9,17.6
				c-12.8,0-24.9,3.1-24.9-19.2c0-16,0-25.8,0-34.8C42.7,46.2,49.4,14.2,85.3,14.2z"/>
			<path class="st8" d="M85.3,14.2v37.2c0,0,19.1,2.1,27.7,16.4c0,12.9,0,19.6,0,23.9c0,4.3-1.1,15.2-9.9,17.6
				c12.8,0,24.9,3.1,24.9-19.2c0-16,0-25.8,0-34.8C128,46.2,121.2,14.2,85.3,14.2z"/>
			<path class="st12" d="M85.3,35.9c14.9,0,27.1,11.5,28.3,26.1c0.1-0.8,0.1-1.5,0.1-2.3c0-15.7-12.7-28.4-28.4-28.4
				S56.9,44,56.9,59.7c0,0.8,0,1.5,0.1,2.3C58.2,47.4,70.4,35.9,85.3,35.9z"/>
		</g>
	</g>
</g>
</svg>
