<?xml version="1.0" encoding="utf-8"?>
<!-- Generator: Adobe Illustrator 23.0.1, SVG Export Plug-In . SVG Version: 6.00 Build 0)  -->
<svg version="1.1" id="Layer_1" xmlns="http://www.w3.org/2000/svg" xmlns:xlink="http://www.w3.org/1999/xlink" x="0px" y="0px"
	 viewBox="0 0 170 170" style="enable-background:new 0 0 170 170;" xml:space="preserve">
<style type="text/css">
	.st0{fill:#D6D6D6;}
	.st1{opacity:0.1;}
	.st2{clip-path:url(#SVGID_2_);}
	.st3{fill:#FEE1B9;}
	.st4{fill:#FFD9AC;}
	.st5{fill:#8B5854;}
	.st6{fill:#5E3531;}
	.st7{fill:#3886C6;}
	.st8{fill:#24578C;}
	.st9{fill:#FCBD18;}
	.st10{fill:#F2AE16;}
	.st11{fill:#FFFFFF;}
	.st12{fill:#726658;}
</style>
<g id="ava_03">
	<g>
		<g>
			<path class="st0" d="M170,85c0-46.9-38.1-85-85-85C38.1,0,0,38.1,0,85c0,46.9,38.1,85,85,85C131.9,170,170,131.9,170,85z"/>
		</g>
	</g>
	<path class="st1" d="M108.2,30.2l-5.7,5.7l-3.4-3.4L51.7,80l19.4,19.4l-3.8,3.8l18.3,18.3l-9.9,9.9l34.7,34.7
		c32.4-10.2,56.5-39.3,59.2-74.4L108.2,30.2z"/>
	<g>
		<defs>
			<path id="SVGID_1_" d="M170,85c0-46.9-38.1-85-85-85C38.1,0,0,38.1,0,85c0,46.9,38.1,85,85,85C131.9,170,170,131.9,170,85z"/>
		</defs>
		<clipPath id="SVGID_2_">
			<use xlink:href="#SVGID_1_"  style="overflow:visible;"/>
		</clipPath>
		<g class="st2">
			<polygon class="st3" points="98.7,130.7 85,170 71.6,130.7 71.6,100.4 98.7,100.4 			"/>
			<path class="st3" d="M48.7,74c-0.5-4.5,2-8.6,5.5-9.1c3.5-0.5,6.7,2.8,7.2,7.3c0.5,4.5-2,8.6-5.5,9.1
				C52.4,81.8,49.1,78.5,48.7,74z"/>
			<g>
				<g>
					<g>
						<g>
							<path class="st4" d="M113.8,81.3c-3.5-0.4-5.8-4.4-5.3-8.9c0.6-4.5,3.9-7.9,7.4-7.5c3.5,0.4,5.8,4.4,5.3,8.9
								C120.6,78.3,117.3,81.7,113.8,81.3z"/>
						</g>
					</g>
					<g>
						<g>
							<path class="st3" d="M85.3,37.4c0,0-28.8,3.6-28.8,19c0,0,0,20.8,0,26.8c0,6,9.8,23.3,18.6,24c4.4,0.4,10.2,0.9,10.2,0.9
								s5.8-0.5,10.2-0.9c8.8-0.7,18.6-18,18.6-24c0-6,0-26.8,0-26.8C114.1,41,85.3,37.4,85.3,37.4z"/>
						</g>
						<g>
							<path class="st4" d="M114,56.4c0,0,0,20.8,0,26.8c0,6-9.8,23.3-18.6,24c-4.4,0.4-10.2,0.9-10.2,0.9V37.4
								C85.2,37.4,114,41,114,56.4z"/>
						</g>
					</g>
				</g>
			</g>
			<path class="st3" d="M84.8,170v-48.4c0,0-9.7-2.6-12-10.9c-1.1-4-1.2-3.1-1.2,1c0,12.4-29.7,7.1-37.7,16.7
				C27.7,137,23.4,170,23.4,170H84.8z"/>
			<path class="st4" d="M85.2,170v-50.9c0,0,9.8-0.2,11.7-5c0.7-1.7,1.8-6.5,1.8-2.3c0,12.4,29.4,7,37.3,16.6
				c6.2,8.6,10.6,41.6,10.6,41.6H85.2z"/>
			<path class="st5" d="M50.6,53.7V67c0.9-1.1,2.2-1.9,3.6-2.1c1.1-0.1,2.1,0.1,3.1,0.6v-9.9h27.8V22.7
				C52.2,22.7,50.6,53.7,50.6,53.7z"/>
			<path class="st6" d="M119.5,53.7V67c-0.9-1.1-2.2-1.9-3.6-2.1c-1.1-0.1-2.1,0.1-3.1,0.6v-9.9H85.1V22.7
				C117.9,22.7,119.5,53.7,119.5,53.7z"/>
			<polygon class="st4" points="85.2,169.5 98.7,130.7 98.7,100.4 85.2,100.4 			"/>
			<path class="st7" d="M125.2,153h19.3c-1.8-10.8-4.3-23-7.3-26.8c-6.3-7.9-34.7-8.9-34.7-8.9l-0.1,0c-1.2,6.9-8.4,12.2-17.2,12.2
				c-8.8,0-16-5.3-17.2-12.2l-0.1,0c0,0-28.4,1.1-34.7,8.9c-3,3.8-5.5,16-7.3,26.8h19.4v17c29,0,39.7,0,39.9,0c0,0,0,0,0,0
				c0.2,0,10.9,0,40,0V153z"/>
			<path class="st8" d="M85.2,170c0.2,0,10.9,0,40,0v-17h19.3c-1.8-10.8-4.3-23-7.3-26.8c-6.3-7.9-34.7-8.9-34.7-8.9l-0.1,0
				c-1.2,6.9-8.4,12.2-17.2,12.2L85.2,170C85.2,170,85.2,170,85.2,170z"/>
			<path class="st9" d="M85.2,134.3c11.9,0,21.8-7.3,23.2-16.7c-3.6-0.3-6-0.4-6-0.4l-0.1,0c-1.2,6.9-8.4,12.2-17.2,12.2
				c-8.8,0-16-5.3-17.2-12.2l-0.1,0c0,0-2.4,0.1-6,0.4C63.4,127.1,73.2,134.3,85.2,134.3z"/>
			<path class="st9" d="M25.9,153h19.4v-5.4H26.9C26.5,149.4,26.2,151.2,25.9,153z"/>
			<path class="st10" d="M143.5,147.6h-18.3v5.4h19.2C144.2,151.2,143.9,149.4,143.5,147.6z"/>
			<path class="st10" d="M108.4,117.7c-3.6-0.3-6-0.4-6-0.4l-0.1,0c-1.2,6.9-8.4,12.2-17.2,12.2v4.9
				C97.1,134.3,107,127.1,108.4,117.7z"/>
			<g>
				<path class="st11" d="M84.8,95.7c4,0,7.3-2.9,7.3-6.4H77.6C77.6,92.9,80.8,95.7,84.8,95.7z"/>
				<path class="st12" d="M102,72.2c0-1.4-1.1-2.5-2.5-2.5c-1.4,0-2.5,1.1-2.5,2.5c0,1.4,1.1,2.5,2.5,2.5
					C100.9,74.7,102,73.5,102,72.2z"/>
				<path class="st12" d="M72.9,71.2c0-1.4-1.1-2.5-2.5-2.5s-2.5,1.1-2.5,2.5c0,1.4,1.1,2.5,2.5,2.5S72.9,72.5,72.9,71.2z"/>
				<g>
					<g>
						<g>
							<path class="st6" d="M75.5,66.4c-0.2,0-0.3-0.1-0.4-0.2c-0.9-1.2-2.7-1.9-4.7-1.9s-3.8,0.7-4.7,1.9c-0.2,0.2-0.5,0.3-0.7,0.1
								c-0.2-0.2-0.3-0.5-0.1-0.7c1.1-1.5,3.2-2.4,5.5-2.4c2.3,0,4.4,0.9,5.5,2.4c0.2,0.2,0.1,0.5-0.1,0.7
								C75.7,66.4,75.6,66.4,75.5,66.4z"/>
						</g>
					</g>
				</g>
				<g>
					<g>
						<g>
							<path class="st6" d="M104.6,66.4c-0.2,0-0.3-0.1-0.4-0.2c-0.9-1.2-2.7-1.9-4.7-1.9c-2,0-3.8,0.7-4.7,1.9
								c-0.2,0.2-0.5,0.3-0.7,0.1c-0.2-0.2-0.3-0.5-0.1-0.7c1.1-1.5,3.2-2.4,5.5-2.4c2.3,0,4.4,0.9,5.5,2.4c0.2,0.2,0.1,0.5-0.1,0.7
								C104.8,66.4,104.7,66.4,104.6,66.4z"/>
						</g>
					</g>
				</g>
			</g>
		</g>
	</g>
</g>
</svg>
