<?xml version="1.0" encoding="utf-8"?>
<!-- Generator: Adobe Illustrator 23.0.1, SVG Export Plug-In . SVG Version: 6.00 Build 0)  -->
<svg version="1.1" xmlns="http://www.w3.org/2000/svg" xmlns:xlink="http://www.w3.org/1999/xlink" x="0px" y="0px"
	 viewBox="0 0 2272 1872" style="enable-background:new 0 0 2272 1872;" xml:space="preserve">
<style type="text/css">
	.st0{fill:#FFEECB;}
	.st1{fill:#2D3E51;}
	.st2{fill:#1E2D3A;}
	.st3{fill:#BA6E3A;}
	.st4{fill:#EF7C2E;}
	.st5{fill:#440235;}
	.st6{fill:#A86335;}
	.st7{fill:#663C20;}
	.st8{fill:#FEC83D;}
	.st9{fill:#3A556D;}
	.st10{fill:#EC5B44;}
	.st11{fill:#A33124;}
	.st12{fill:#FF8C80;}
	.st13{fill:#89423D;}
	.st14{fill:#BCA479;}
	.st15{fill:none;}
</style>
<g id="Background">
</g>
<g id="object">
	<g>
		<g>
			<path class="st0" d="M422.5,1139.3c-16.8,0.2-33.6,0.3-50.3,0.5c-2.8,0-6.1,0.5-7.1,3s4.2,4.7,4.1,1.9
				c-12.8,0.7-25.6,1.4-38.5,2.1c4.4,2.9,8.9,5.8,13.3,8.8c-14.7-1.4-29.8,0.5-43.7,5.5c0.5,6.2,3.6,12.1,8.4,16.1
				c-13.6,1.1-27.1,4.4-39.7,9.7c-3.7,1.6-7.8,3.8-8.8,7.7c-1,3.9,3.9,8.6,6.9,5.9c-57.5,16.1-111.5,44.6-157.2,83
				c7.2-4.7,11,10.6,4.7,16.5c-6.3,5.8-16.5,10.2-15.9,18.8c5.9,0.1,11.7,0.2,17.6,0.3c-1.7,6.1-5.1,11.7-9.6,16
				c14.9-1.4,29.9-0.8,44.7,1.9c-2.6,5.7-7,10.6-12.5,13.7c12.7,0.1,25.4,0.2,38.1,0.2c-9.1,8.1-18.2,16.3-27.3,24.4
				c17.7,2,35.3,4.1,53,6.1c-12.9,8.7-22.5,22-26.7,37c11.5-3.5,23-7,34.5-10.4c-6.7,10-13.5,20-20.2,30c11.5-0.8,23-1.5,34.4-2.3
				c-6,9.6-12,19.1-18,28.7c11.9-0.5,23.8-1,35.7-1.5c0.7,13.3,1.4,26.5,2.1,39.8c8.9-8.6,18.6-16.4,29.1-23
				c2.9,10.5,3.9,21.6,3,32.4c7.9-3.1,15.7-6.1,23.6-9.2c0.1,10.5,0.1,21,0.2,31.4c7.4-6.7,14.9-13.5,22.3-20.2
				c3,16.3,11.2,31.6,23.2,43.2c-0.1-7.5,2.9-15.1,8.2-20.4c8.3,6.1,15.5,13.5,21.4,22c8.7-13.8,35.4-2.2,31.2,13.6
				c6.2-10.3,22-10.8,31.9-17.7c1.1,8.8,2.2,17.5,3.4,26.3c11.4-8.7,24.6-15.1,38.5-18.5c0.4,18.4,11.6,36.1,28,44.4
				c-3.7-15.1,15.3-27.8,30.5-24.4c15.2,3.4,26.1,16.3,35.9,28.4c1.2-7.6,2.3-15.1,3.5-22.7c20,13.8,40,27.6,60,41.4
				c0.4-8.3,0.9-16.5,1.3-24.8c14.9,9,29.8,18.1,44.7,27.1c0.1-7.2,0.1-14.4,0.2-21.6c17.6,11.9,36.8,21.5,56.9,28.4
				c-0.1-5.7-0.2-11.3-0.2-17c10.2,7.3,20.5,14.7,30.7,22c-0.8-10.2,8.4-20.1,18.6-20c10.2,0.1,19.3,10.2,18.2,20.4
				c13.8-10.7,30-18.4,47-22.5c1.5,6.8,2.9,13.7,4.4,20.5c16-13.6,36.3-21.9,57.3-23.4c-0.7,8.3-1.4,16.6-2,24.8
				c13.8-10.4,31.1-16.3,48.4-16.4c0.7,8.5-1.2,17.1-5.3,24.5c28.4-12.3,58.2-21.5,88.5-27.5c-4.9,9.2-9.9,18.5-14.8,27.7
				c20.3-13.6,43.5-22.8,67.5-27c1,7.2,2,14.3,3,21.5c9.5-3.1,19-6.1,28.5-9.2c8.1,2,26.4,11.8,29.1,19.8c3.9-10,12-18.2,22-22.1
				c1.6,5.9,4.4,11.6,8.2,16.4c1.2,1.5,2.7,3,4.6,2.9c4.3-0.2,3.7-6.7,5.3-10.7c1.7-4.5,7.5-6.3,12.1-5.2c4.7,1.1,8.5,4.3,12.2,7.4
				c6.2,5.3,12.4,10.6,18.6,15.9c1.5-10.2,9-14.9,19.3-15.5c10.3-0.6,20.6,6.8,23.2,16.8c-1.5-11.1,12.1-19,23.1-17
				c11,2,19.7,10,28.9,16.4s21,11.5,31.2,7.1c0.5-6.1,1-12.3,1.6-18.4c7.9,2.7,16.1,5.4,24.4,4.5c8.3-0.9,16.7-6.4,18.1-14.7
				c20.8,0.9,41.5,1.8,62.3,2.7c-1.9-5.3-3.7-10.6-5.6-15.9c22.3,5.7,44.5,11.3,66.8,17c0.7-7.9,1.4-15.9,2-23.8
				c13.3,3.4,26.6,6.8,39.8,10.1c8,2,17,4,24.2-0.2c7.2-4.1,8.5-17.2,0.6-19.6c14.3,3.3,28.6,6.7,42.9,10
				c12.5,2.9,19.8,12.7,32.5,14.3c-5.6-6.2-11.2-12.3-16.8-18.5c24.1,5.7,48.2,11.5,72.3,17.2c2.1-6.6,1.5-14-1.7-20.2
				c22.4,2.8,44.7,5.7,67.1,8.5c0.7-4.8-2.2-9.9-6.7-11.7c14,3.5,29.2,1.4,41.8-5.7c21.4-0.1,42.7-3.3,63.2-9.4
				c-1.7-5.4-3.4-10.8-5.1-16.1c11.2,0.7,22.8,1.3,33.4-2.6c10.5-3.9,19.8-13.6,19.6-24.8c16.3-7.1,32.5-14.2,48.8-21.2
				c-3.2,2.2-7.3-2.7-6.1-6.3s5.1-5.6,8.6-7.2c12.9-5.8,25.8-11.6,38.7-17.5c-8.6-4.1-17.3-8.1-25.9-12.2c17.6-4.3,33-16.8,41-33.1
				c-6.8-2.3-13.7-4.5-20.5-6.8c4.2-5.1,6-12.1,4.9-18.6c-8.8-1.8-17.6-3.7-26.3-5.5c4.5-6.1,8.9-12.2,13.4-18.2
				c-10.2,2-21.1,0.4-30.2-4.6c13.5-7.8,27-15.6,40.5-23.5c9-5.2,21.1-4.6,30.8-8.1c-8.7-4.7-17.3-9.3-26-14
				c18.6-3.2,37.3-6.5,55.9-9.7c4.6-0.8,10.4-3,10.2-7.6c-0.1-2.5-2-4.6-2.8-7c-2-6.8,5.8-12,11.7-15.9
				c11.8-7.8,20.5-20.1,23.8-33.8c-3,4.5-6,9-9,13.6c15.4-13.8,27.1-31.7,33.3-51.4c-7.7-0.2-15.3-0.4-23-0.6
				c-3.1-0.1-6.9-0.7-7.7-3.7c-0.8-2.8,1.8-5.3,4.1-7c7.5-5.6,14.9-11.1,22.4-16.7c4.1,1.5,2-5.7,0.7-9.9
				c-10.4-3.9-20.8-7.9-31.2-11.8c6.2,4.1,13.7-6.5,9.8-12.8c-3.9-6.4-12.8-7.4-20.2-6.5s-15,3.3-22.2,1.1
				c8-5.5,13.6-14.3,15.2-23.9c-11.8,0.5-23.6,1.1-35.4,1.6c-2.4-7.9-1.3-16.8,3-23.8c-18.4-2.1-36.9-4.3-55.3-6.4
				c2-17.5-20.5-27.7-38-25.6s-34.8,10.6-52,6.7c1.3-6.6,2.7-13.2,4-19.8c-50.6,10.3-100.9,22.4-150.6,36.4
				c4.3-11.8,9.8-23.1,16.2-33.9c-31.3,0.9-62.4,7.5-91.3,19.4c-13.8,5.7-28.2,12.8-43.1,10.6c-14.8-2.2-28.2-19.2-20.4-32.1
				c-16.3,8.3-38.4,2.5-48.4-12.8c-28.9,3.4-57.7,6.8-86.6,10.3c-7.5,0.9-18.5-6.9-11.9-10.6c-23.9,5.2-47.8,10.4-71.7,15.6
				c3.7-8.5,12.6-26.3,16.3-34.7c-30.1-2-60.5,1.9-89.2,11.4c2.3-5.1,4.7-10.1,7-15.2c-25.6,0-51.1,5.6-74.3,16.3
				c3.5-10.8,7-21.7,10.5-32.5c-19.8,3.1-39.2,9.5-57,18.7c3.6-10,4.7-20.8,3.2-31.3c-16.4,8.5-32.9,17-49.3,25.5
				c0.6-5.6-0.2-11.3-2.4-16.5c-14.2,8.4-28.3,16.9-42.5,25.3c-2.3-10.2-4.7-20.3-7-30.5c-12.3,6.4-24.5,12.7-36.8,19.1
				c-2.5-8.4-4.9-16.7-7.4-25.1c-15.7,12-31.5,24.1-47.2,36.1c-6.5-8.7-13-17.5-19.5-26.2c-6.3,4.9-12.7,9.9-19,14.8
				c-2.5-11.5-9.2-22.1-18.5-29.3c4.9,15.2-11.3,30.6-27.3,31.2c-16,0.6-30.6-8.4-44-17.1c-1.1,6.7-2.1,13.3-3.2,20
				c-17.3-1-34.5-5.4-50.2-12.7c6.4,6.3,10.4,15.1,10.7,24.2c-30.7-0.4-61.4-5.4-90.7-14.8c0.8,6.6-1.5,13.6-6,18.4
				c-22-7.5-45.2-11.4-68.4-11.5c4.2,6.9,6,15.2,5.3,23.2c-22.7,1.6-45.6,0.9-68.2-2c4.7,11.5-9,23.6-21.3,22.6
				c-12.4-1.1-22.3-10.1-31.3-18.7c-2.4,6.1-4.7,12.2-7.1,18.3c-21.2,5.3-44.2,3.4-64.2-5.5c2.4,4,3.4,8.8,2.8,13.4
				c-14,1.8-28.6-2.1-39.9-10.5c-0.2,8.2-0.5,16.3-0.7,24.5C469.3,1111,439.4,1126.7,422.5,1139.3z"/>
			<path class="st1" d="M180.6,1260.1c-15.5,6.6-33.7,19.1-29.5,35.4c2.8,10.8,14.5,16.5,25.1,20.2c30.8,10.8,63.2,17.3,95.8,19.2
				c14.3,0.8,29.1,0.9,42.1,7c12.9,6.2,23.2,20.8,19.1,34.5c-2.5,8.4-9.6,14.6-14,22.2c-10,17.5-3.6,40.9,10,55.8
				c13.6,15,32.8,23.3,51.7,30.7c189.7,73.7,397.4,82.4,600.8,90.2c208.3,8,417,16,625.3,6.2c89.1-4.2,179.2-11.8,263.2-41.9
				c24.2-8.6,48.4-19.6,65.8-38.5c17.4-18.9,26.5-47.3,16.4-70.9c-5.1-12-14.8-22.6-15-35.6c-0.3-23.4,27.8-34.4,50-41.8
				c27.1-9,52.9-21.7,76.4-37.8c15.8-10.8,31.2-24.1,37.1-42.2c7.2-22.2-2.1-47.3-18-64.4c-15.9-17.1-37.5-27.6-59.1-36.7
				c-185.2-77.4-393.4-66.1-594.1-67c-339-1.6-688.2-40.3-1008.9,69.6C452.8,1171.8,289,1213.8,180.6,1260.1z"/>
			<path class="st2" d="M1906.4,1491.8c-3.8-23.7-14.4-45.7-26.1-66.6c-20.4-36.3-46.2-71.7-83.1-91.1
				c-25.8-13.6-55.3-18.3-84.3-21.5c-107.9-11.9-217.8-4.3-323.1,21.5c-49.5,12.1-96.6,33-146.3,43.9c-31.5,7-63.7,8.4-94.4,19
				c-35,12-129.7,43.5-100,93.2c23.4,39.1,59.1,69.4,99.4,91.1c152.8,4.9,305.7,7.3,458.4,0.2c89.1-4.2,179.2-11.8,263.2-41.9
				c12.6-4.5,25.1-9.6,36.8-16.2C1908.3,1513,1908,1502.2,1906.4,1491.8z"/>
			<path class="st3" d="M431,1274.3c58.5,5.4,117.3,6.7,176,3.9c49.4-2.3,100.1-7.5,147.5,6.8c41.3,12.5,78.5,39.3,121.4,43.5
				c15,1.5,30.4,0.1,45.1,3.7c43.9,10.7,65.1,59.3,97.3,91.1c36.2,35.8,91.6,50.9,141,38.6c35.7-8.9,66.8-30.6,100.7-44.9
				c132.1-55.6,293.8,5.4,422.1-58.2c56.3-27.9,99.8-77.2,156.2-104.9c32.3-15.8,69.9-25.6,91.9-54.1c11.5-14.9,17.8-33.8,23.5-52.9
				c-166.8-49.8-348.3-41.3-524.1-42.1c-339-1.6-688.2-40.3-1008.9,69.6c20.3-1.6-37.7,14.6-110.6,38.4
				C327.8,1256.1,383.6,1269.9,431,1274.3z"/>
			<path class="st4" d="M469.1,1224.8c81.9,34.9,178.8-10.6,264.2,14.5c24.4,7.2,47.1,19.9,72.1,24.2c14.4,2.5,29.2,2.1,43.5,5.2
				c24.2,5.2,45.2,19.8,66,33.2c50.7,32.7,104.6,60,158.4,87.2c14.1,7.2,28.9,14.5,44.8,14.2c15-0.3,29-7.4,42.1-14.8
				c29.8-17,58.2-36.4,86.7-55.4c128.3-85.2,262.6-161.3,401.7-227.5c-73-1.9-146.4-0.7-218.9-1c-339-1.6-688.2-40.3-1008.9,69.6
				c5.9-0.5,5.2,0.6-0.5,2.8c0.1,0.5,0.3,1,0.4,1.4C428,1200.4,447.9,1215.8,469.1,1224.8z"/>
			<g>
				<polygon class="st5" points="1779.1,1214.5 431.1,1214.5 377.4,398.6 1847.1,398.6 				"/>
				<g>
					<path class="st6" d="M1482.4,1210.6V554.5H1598v406.4l12-129.2h163.8l-163.8-26l20.7-237.6l149.9-23.7h-220.1v-92.9l-23.1,92.9
						L900.4,544l-10.5-92.5c0,0-4.8,90.6-8.9,89.6c-4.1-1-298.5-11.5-298.5-11.5l-8.8,54.2l-130.5,22.1c0,0,137.8,3,130.5,3.7
						c-7.3,0.7,0,385.1,0,385.1l-98.8,13.7h98.8l6.7,205.7h994.1l0.3-3.5H1482.4z"/>
				</g>
				<g>
					<rect x="593.5" y="559.5" class="st6" width="1000" height="656.1"/>
					<rect x="593.5" y="529.2" class="st4" width="115.6" height="686.4"/>
					<rect x="1482.4" y="543.3" class="st4" width="115.6" height="672.2"/>
					<g>
						<rect x="593.5" y="1091.3" class="st7" width="1000" height="124.3"/>
						<ellipse class="st4" cx="1098.4" cy="1143.6" rx="285.6" ry="33.9"/>
						<path class="st4" d="M898.7,938c5.4-15.7,20.8-33.9,34.9-25.2c8.5,5.2,9.4,16.9,11,26.7c1.6,9.8,7.7,21.5,17.6,20.6
							c11.3-1.1,13.8-16.3,13.6-27.7c-1.2-57.7,8-115.7,27-170.2c5.6-15.9,12.2-31.8,23.4-44.3c11.3-12.5,28.1-21.1,44.7-18.7
							c5.7,0.8,11.5,3.1,15.3,7.5c5.7,6.5,5.9,16,5.8,24.7c-0.5,41.8-1,83.7-1.5,125.5c-0.3,24,1.3,51.9,20.8,66
							c2.8,2,6.1,3.7,9.6,3.7c10.4-0.2,14.1-13.5,16.2-23.8c3.2-16,9.8-31.4,19.2-44.8c8.5-12,28.5-21.7,35.7-8.9
							c2.3,4,2,8.9,1.8,13.5c-1.3,28.4-0.2,56.9,3.4,85c1.5,12.1,8.2,27.7,20.2,25.3c4.3-0.8,7.8-4.1,10.6-7.5
							c14.4-17.6,19.5-44.1,39.8-54.3c3.2-1.6,6.8-2.7,10.2-1.7c6.7,1.9,8.8,10.1,9.8,16.9c4.9,35.5,6.9,71.5,6,107.3
							c-0.6,23.8-2.8,48.6-15.2,68.8c-25.5,41.7-82.1,48.6-130.9,51.2c-72,3.8-165.7,12.5-231-25.5
							C862.3,1096.5,881.9,986.2,898.7,938z"/>
						<path class="st8" d="M1254.3,1030.9c-0.7-6.4-4.4-14.9-10.6-13.2c-2.8,0.8-4.5,3.5-6,6c-4.8,8.2-9.5,16.4-14.3,24.5
							c-1.5,2.7-3.2,5.5-6,6.9c-3.5,1.8-7.8,0.9-11.3-0.8c-18.7-9.1-21-34-25.7-54.3c-1.6-7.1-5.3-15.2-12.5-16
							c-7.7-0.8-13.1,7.9-14.3,15.6c-1.2,7.7-0.5,16.2-4.9,22.6c-1.1,1.6-2.7,3.1-4.7,3.4c-3.1,0.4-5.7-2.3-7.5-4.8
							c-7.4-10.2-12.3-22.1-14.1-34.6c-0.7-4.6-1.4-10-5.4-12.3c-7.4-4.3-14.5,6-17,14.2c-3,9.9-5.9,19.8-8.9,29.7
							c-2.5,8.4-9.6,18.9-17.3,14.8c-2.4-1.3-3.9-3.7-5.2-6.1c-18.7-34.8-10.5-78.2-22.7-115.8c-2.9-8.9-10.1-19.2-19.2-16.7
							c-4.5,1.2-7.6,5.3-10,9.3c-22.3,36.5-20,82.1-26.7,124.3c-1.6,9.8-6.5,21.9-16.4,21.4c-16.6-0.8-15-34.5-31.6-34.5
							c-7.1,0-12.1,7-15,13.5c-14.5,32.5-8.6,69.8-1.4,104.9c64.7,32.4,153.4,24.3,222.2,20.7c33.4-1.8,70.4-5.6,98.7-21.2
							C1255.1,1099.4,1257.8,1064.9,1254.3,1030.9z"/>
						<rect x="593.5" y="1083.8" class="st5" width="999.3" height="20.4"/>
						<rect x="593.5" y="1138.1" class="st5" width="999.3" height="20.4"/>
						<g>
							<rect x="717.5" y="1008.4" class="st5" width="21.6" height="205.9"/>
							<rect x="823.9" y="1008.4" class="st5" width="21.6" height="205.9"/>
							<rect x="930.3" y="1008.4" class="st5" width="21.6" height="205.9"/>
							<rect x="1036.7" y="1008.4" class="st5" width="21.6" height="205.9"/>
							<rect x="1143.1" y="1008.4" class="st5" width="21.6" height="205.9"/>
							<rect x="1249.5" y="1008.4" class="st5" width="21.6" height="205.9"/>
							<rect x="1355.9" y="1008.4" class="st5" width="21.6" height="205.9"/>
							<rect x="1462.2" y="1008.4" class="st5" width="21.6" height="205.9"/>
						</g>
					</g>
					<path class="st4" d="M1244.6,855.5c-0.1-3.2-4.9-3.2-5,0c-0.3,6.7-0.7,13.4-0.2,20.1c0.5,6.7,0.9,13.3,0.9,20.1
						c0,2.3,3.6,2.3,3.6,0c0-6.7,0.4-13.4,0.9-20.1C1245.3,868.8,1244.9,862.2,1244.6,855.5z"/>
					<path class="st4" d="M1138.6,814.6c-0.5-3.2-5.2-2.2-5.4,0.7c-0.5,10.2-1.7,20.6-4.2,30.4c-1.3,5,6.5,7.2,7.8,2.1
						C1139.7,836.7,1140.4,826.1,1138.6,814.6z"/>
					<path class="st4" d="M956.1,886.4c-0.5-2.7-4.4-1.8-4.5,0.6c-0.4,6.4,0.3,13.2-1.1,19.5c-0.5,2.4,3.2,3.5,3.8,1
						C955.9,900.2,957.7,894,956.1,886.4z"/>
					<path class="st4" d="M871.9,910.5c-4.2,18.1-5.3,36.7-5.2,55.3c0,5.1,8,5.1,8,0c-0.1-18.2,1.7-36.4,3.4-54.5
						C878.5,907.8,872.7,907.1,871.9,910.5z"/>
					<path class="st4" d="M967.5,740.9c-5.4,10.4-7.5,21.7-9.9,33.1c-1.2,5.5-2.1,11.1-2.9,16.7c-0.8,5.4-1.7,10.9-0.8,16.4
						c0.3,1.6,2.8,1.9,3.5,0.5c2.5-4.9,3.4-10.5,4.6-15.8c1.2-5.5,2.5-11,3.7-16.5c2.5-11,6-21.7,6.9-33
						C972.7,739.6,968.7,738.6,967.5,740.9z"/>
					<path class="st4" d="M1162.6,703.5c-0.2-3.9-6.4-5.3-7.2-1c-1.4,7-2.1,13.9-2.7,21.1c-0.5,6.1,9.3,6.2,9.6,0
						C1162.7,716.8,1163,710.2,1162.6,703.5z"/>
					<path class="st4" d="M1322.5,857c-1.9,1.9-3.9,3.8-5.8,5.6c-1.9,1.8,1.1,4.8,2.9,2.9l5.6-5.8
						C1326.9,857.9,1324.3,855.3,1322.5,857z"/>
					<path class="st4" d="M1353.4,889.4c-2,1.3-3.8,2.8-5.6,4.4c-1.8,1.6-1.7,4.8,0,6.4c1.7,1.6,4.7,1.9,6.4,0
						c1.6-1.8,3.1-3.5,4.4-5.6C1360.8,891.5,1356.7,887.3,1353.4,889.4z"/>
					<path class="st4" d="M1338.1,973c-3.5,4.3-6.6,8.8-9.7,13.5c-3.3,5,4.7,9.6,8,4.7c2.9-4.3,5.7-8.6,8.2-13.2
						C1346.7,974.1,1341.2,969.2,1338.1,973z"/>
					<path class="st4" d="M917.3,786.3c-2.1-0.2-4.8,1-5.1,3.4c-0.5,3.3-1,6.7-1.5,10c-0.4,2.8,0.9,5.5,4,6c3.1,0.4,5-1.8,5.4-4.7
						c0.4-3.3,0.9-6.7,1.3-10C921.6,788.7,919.3,786.6,917.3,786.3z"/>
				</g>
			</g>
			<g>
				<g>
					<path class="st8" d="M365.5,1000.2c0.5-14.9,7.7-29.9,3.7-44.2c-6-21.4-34.4-32.1-36.7-54.1c-2.1-19.7,17.9-34.8,22.6-54.1
						c7.1-29-21.8-55.8-20.7-85.6c0.8-21.9,17.3-39.5,33.2-54.5c6.5-6.1,15.6-12.6,23.5-8.6c5.1,2.5,7.4,8.5,8.5,14
						c4.7,22.9-3.8,47.5,3.2,69.8c4.4,13.9,14.2,25.3,21.3,38.1c13.1,23.7,16.3,52.8,8.5,78.7c-2.1,7-5,14.4-2.9,21.4
						c1.3,4.4,4.5,8.1,7,11.9c10.6,15.7,12.1,35.8,10.5,54.6c-1.3,14.6-4.3,29.3-11.2,42.2c-4.4,8.4-10.7,16.3-18.4,21.8
						c-10.3,7.3-16,4.4-25.7-2.7C376.6,1037.7,364.9,1019.8,365.5,1000.2z"/>
					<path class="st1" d="M435.2,957.8c-9.7,11.3-18.2,23.5-25.5,36.4c-0.3-4.7-0.6-9.4-1-14.1c-2.2-27.3-9.2-53.4-16.4-79.5
						c0.1-0.2,0.2-0.4,0.3-0.7c2.4-10.1,5-20.1,7.8-30c2.6-9.3,5.1-19,11.9-26.2c2.2-2.3-1.3-5.7-3.5-3.5
						c-6.4,6.7-9.3,15.1-11.9,23.8c-2.6,9-5,18.1-7.3,27.2c-3.9-14.2-7.7-28.4-10.7-42.8c-5.5-26.5-7.7-53.9-1.6-80.5
						c0.7-3.1-4-4.4-4.7-1.3c-10.1,44.1,2,88.4,14,130.9c4.1,14.4,8.2,28.9,11.4,43.5c-4.4-6-10.3-11-16.3-15.8
						c-11.1-8.8-20.7-18.2-28.1-30.4c-1.6-2.7-5.9-0.2-4.2,2.5c6.4,10.5,14.3,19.7,23.9,27.4c10.3,8.3,22,16.2,26.2,29.4
						c0.3,0.8,0.8,1.3,1.4,1.5c0.6,3.5,1.1,6.9,1.5,10.4c1.5,12.1,2.3,24.3,2.8,36.5c-0.2,0.6-0.2,1.2,0.1,1.7
						c0.4,10.4,0.6,20.7,0.8,31.1c0.6,27.2,0.3,54.4-4.8,81.2c-0.6,3.1,4.1,4.4,4.7,1.3c4.3-22.5,5.3-45.5,5.2-68.4
						c-0.1-15.3-0.3-30.6-1-45.9c7.9-15.2,17.3-29.3,28.5-42.4C440.7,958.9,437.3,955.4,435.2,957.8z"/>
				</g>
				<g>
					<path class="st8" d="M294.6,1015.3c-2.6-10.6-0.5-22.7-6.2-32c-8.5-13.9-30.7-15.8-36.8-31c-5.5-13.6,5.7-28.2,5.2-42.8
						c-0.8-21.9-26.6-35.2-31.8-56.5c-3.8-15.6,4.4-31.5,12.7-45.3c3.4-5.6,8.5-12,15-10.8c4.1,0.8,6.9,4.5,8.8,8.2
						c7.9,15.3,6.8,34.4,16.2,48.8c5.9,9,15.1,15.1,22.7,22.7c14,14.2,22.1,34.1,21.7,54.1c-0.1,5.4-0.7,11.2,2.2,15.7
						c1.8,2.9,4.8,4.8,7.4,7c10.6,9,15.7,22.9,18.3,36.6c2,10.6,2.8,21.6,0.5,32.1c-1.5,6.8-4.3,13.7-8.7,19.2
						c-5.8,7.2-10.5,6.3-18.7,3.2C309.9,1039.7,298,1029.4,294.6,1015.3z"/>
					<path class="st1" d="M335.5,971.4c-4.6,10-8.2,20.3-10.8,30.9c-1.1-3.3-2.3-6.5-3.5-9.8c-7-18.9-17.2-36-27.5-53
						c0-0.2,0.1-0.3,0.1-0.5c-0.3-7.6-0.5-15.2-0.5-22.8c0-7.1-0.2-14.5,3.2-21c1.1-2.1-2.1-3.8-3.1-1.8c-3.2,6-3.6,12.6-3.7,19.2
						c-0.1,6.9,0,13.8,0.2,20.7c-5.6-9.3-11.1-18.6-16.1-28.2c-9.2-17.7-16.2-36.6-17.2-56.7c-0.1-2.3-3.7-2.3-3.6,0
						c1.6,33.3,19,62.3,36,89.9c5.8,9.4,11.6,18.8,16.7,28.6c-4.4-3.4-9.5-5.7-14.7-7.9c-9.6-4-18.3-8.7-26-15.9
						c-1.7-1.6-4.2,1-2.5,2.6c6.6,6.2,14.1,11.1,22.4,14.7c9,3.9,18.8,7,24.4,15.6c0.3,0.5,0.8,0.8,1.3,0.8c1.1,2.3,2.2,4.7,3.2,7.1
						c3.5,8.3,6.5,16.8,9.3,25.3c0,0.5,0.1,0.9,0.4,1.2c2.3,7.3,4.5,14.6,6.8,21.8c5.8,19.1,11.1,38.5,12.8,58.5
						c0.2,2.3,3.8,2.3,3.6,0c-1.4-16.8-5.3-33.3-10-49.5c-3.1-10.8-6.3-21.6-9.9-32.3c2.5-12.3,6.4-24.2,11.7-35.7
						C339.6,971.1,336.5,969.3,335.5,971.4z"/>
				</g>
				<g>
					<path class="st2" d="M273.8,1254.4c-1,1.2-2,2.4-2.1,4c-0.1,2.5,2.3,4.3,4.5,5.4c10.5,5.3,22.7,5.7,34.5,5.5
						c44.9-0.8,89.6-8.4,132.2-22.6c25-8.3,27.2-30.3,1.2-39.9c-17.1-6.3-40-9.1-58.1-6.3C349.3,1206.1,298.3,1226.2,273.8,1254.4z"
						/>
					<polygon class="st1" points="306.1,1083.1 504.6,1081.1 504.6,1105.5 453.4,1225.7 349.6,1230.5 306.1,1111.8 					"/>
					<polygon class="st9" points="504.6,1105.5 504.6,1081.1 306.1,1083.1 306.1,1111.8 307.4,1115.2 500.5,1115.2 					"/>
					<path class="st4" d="M449.1,1225.9l4.3-0.2l47.1-110.5h-23.6C474.2,1153.3,464.8,1191,449.1,1225.9z"/>
					<path class="st8" d="M477.4,1081.4c0.4,11.3,0.2,22.5-0.6,33.8h23.6l4.1-9.7v-24.4L477.4,1081.4z"/>
				</g>
			</g>
		</g>
	</g>
	<g>
		<g>
			<path class="st5" d="M1436.5,1029h-320.6c-32.5,0-61.2,21.4-70.4,52.6l-98.8,334.1c-10.6,36,16.3,72.1,53.9,72.1h435l81.4-357.8
				C1528.9,1078.2,1489.6,1029,1436.5,1029z"/>
			<path class="st10" d="M1089.1,1469.9l98.8-334.1c9.2-31.2,37.9-52.6,70.4-52.6h255.9c-11.5-31.2-41.3-54.2-77.7-54.2h-320.6
				c-32.5,0-61.2,21.4-70.4,52.6l-98.8,334.1c-10.6,36,16.3,72.1,53.9,72.1h86.2C1086.7,1481.9,1087.4,1475.9,1089.1,1469.9z"/>
			<path class="st8" d="M1048.3,1133.3c9.9-34.1,22.6-68.1,40.1-98.9c-20.3,8.2-36.3,25.3-42.8,47.2l-98.8,334.1
				c-4.2,14.2-2.5,28.3,3.3,40.3c9.4-46.3,32.2-90.7,48.4-135.8C1020.3,1259.5,1030.4,1195.2,1048.3,1133.3z"/>
			<path class="st8" d="M1192.3,1068.2c17.9,3.9,36.5,8.2,52.7,16.2c4.3-0.8,8.7-1.2,13.2-1.2h255.9c-0.3-0.9-0.7-1.8-1.1-2.7
				c0-0.1-0.1-0.2-0.1-0.3c-0.8-1.9-1.6-3.7-2.5-5.5c0-0.1-0.1-0.1-0.1-0.2c-0.4-0.8-0.9-1.7-1.3-2.5c0-0.1-0.1-0.1-0.1-0.2
				c-1-1.7-2-3.4-3.1-5.1c-0.1-0.1-0.1-0.2-0.2-0.3c-0.5-0.8-1-1.6-1.6-2.3c0,0,0-0.1-0.1-0.1c-1.1-1.6-2.3-3.2-3.6-4.7
				c-0.1-0.1-0.2-0.2-0.3-0.3c-1.2-1.5-2.5-3-3.9-4.4c-0.1-0.1-0.1-0.1-0.2-0.2c-0.6-0.6-1.2-1.3-1.8-1.9c-0.1-0.1-0.2-0.2-0.3-0.3
				c-1.4-1.3-2.8-2.6-4.3-3.9c-0.1-0.1-0.3-0.2-0.4-0.3c-0.6-0.5-1.3-1.1-1.9-1.6c-0.1-0.1-0.2-0.2-0.3-0.3
				c-0.8-0.6-1.6-1.2-2.3-1.8c0,0-0.1,0-0.1-0.1c-0.7-0.5-1.5-1-2.3-1.6c-0.2-0.1-0.3-0.2-0.5-0.3c-0.7-0.5-1.4-0.9-2.1-1.3
				c-0.1-0.1-0.2-0.1-0.3-0.2c-0.8-0.5-1.7-1-2.5-1.5c-0.1-0.1-0.3-0.2-0.4-0.2c-0.7-0.4-1.4-0.8-2.1-1.1c-0.2-0.1-0.4-0.2-0.6-0.3
				c-0.8-0.4-1.6-0.8-2.5-1.2c0,0-0.1,0-0.1-0.1c-0.9-0.4-1.8-0.8-2.6-1.2c-0.2-0.1-0.4-0.2-0.6-0.3c-0.7-0.3-1.4-0.6-2.1-0.8
				c-0.2-0.1-0.4-0.2-0.7-0.3c-0.9-0.3-1.8-0.7-2.7-1c-0.1,0-0.1,0-0.2-0.1c-0.9-0.3-1.7-0.5-2.6-0.8c-0.3-0.1-0.5-0.1-0.8-0.2
				c-0.7-0.2-1.5-0.4-2.2-0.6c-0.2-0.1-0.4-0.1-0.6-0.2c-0.9-0.2-1.9-0.4-2.8-0.6c-0.2,0-0.4-0.1-0.6-0.1c-0.8-0.2-1.6-0.3-2.3-0.4
				c-0.3,0-0.6-0.1-0.8-0.1c-0.8-0.1-1.6-0.2-2.5-0.3c-0.2,0-0.3,0-0.5-0.1c-1-0.1-2-0.2-2.9-0.3c-0.3,0-0.5,0-0.8-0.1
				c-0.8-0.1-1.5-0.1-2.3-0.1c-0.3,0-0.6,0-0.9,0c-1,0-2-0.1-3-0.1h-320.6c-5.1,0-10.1,0.5-14.9,1.5c-1.9,0.4-3.8,0.9-5.7,1.4
				c-1.9,0.6-3.7,1.2-5.6,1.9c-1.8,0.7-3.6,1.5-5.4,2.3c-0.9,0.4-1.7,0.9-2.6,1.3c-1.7,0.9-3.4,1.9-5,2.9c-1.6,1-3.2,2.1-4.8,3.3
				c-3.5,2.6-6.8,5.6-9.9,8.9C1105.5,1049.4,1149.5,1058.8,1192.3,1068.2z"/>
		</g>
		<g>
			<path class="st10" d="M2059.9,507.1c-114.1-0.2-283.1-0.5-386.6-0.3c-55.2,0.1-104.9,33.7-125.3,85l-234.2,586.6h664.6
				l193.8-508.1c5.2-13.7,7.9-28.2,7.9-42.9v0C2180,561,2126.2,507.2,2059.9,507.1z"/>
			<path class="st11" d="M1313.7,1178.3h664.6l127.4-334.1c-218.5,103.8-495.7,175.6-734.3,189.5L1313.7,1178.3z"/>
			<path class="st8" d="M1717.9,506.7c13.2,0,27.5,0,42.6,0c-31.9,0-61.6,0-87.3,0c-55.2,0.1-104.9,33.7-125.3,85l-234.2,586.6h44.7
				l234.2-586.6C1613.1,540.5,1662.7,506.8,1717.9,506.7z"/>
			<path class="st5" d="M2127.5,526.3c-18.7-12.5-45.2-2.7-52.8,18.4c-60.8,168.9-170.3,472.6-226.7,633.7h130.2l194.9-508.1
				c5.2-13.7,6.8-28.2,6.8-42.9l1.1,0C2181,585.7,2159.8,547.8,2127.5,526.3z"/>
		</g>
		<path class="st11" d="M1131.3,1208.8l-66.7,242.7c-5.7,20.9,9.7,41.7,31.4,42.1l408.3,8.7l82.7-300.2L1131.3,1208.8z"/>
		<path class="st12" d="M1136.9,1179.1c-33.4,0-60.4,27-60.4,60.4v0c0,33.4,27,60.4,60.4,60.4h763.3v-120.8H1136.9z"/>
		<g>
			<path class="st13" d="M1155.4,1195.5c3.3,13.7,12.9,25.1,23.9,33.9c19,15.2,42.9,24.1,67.1,25c19.4,0.8,41.5-2.6,56.1,10.2
				c3.8,3.4,6.8,7.7,10.4,11.3c7.4,7.5,17.2,12.1,27.4,14.8c34.6,9.3,71.6-2.7,103-19.9c31.4-17.3,59.9-39.9,92.6-54.6
				c32.9-14.8,68.9-21.2,104.7-25.6c2.8-0.3,9.8-5.7,16.5-11.6H1155C1153.9,1184.5,1154.1,1190.2,1155.4,1195.5z"/>
		</g>
		<g>
			<path class="st0" d="M1699.2,1222.4c28.9-2.8,60.4-9,78.5-31.7c14.3-18,17.1-43,13.1-65.6c-10.1-58-57.3-101.7-104.8-136.5
				c-26.1-19.1-53.7-37.2-84.4-47.4c-32.3-10.7-67.6-12.3-100.7-4.5c-15,3.5-29.7,9-41.8,18.5c-20.2,15.9-30.8,40.9-38,65.6
				c-16.4,56-16.1,116.4,23.6,162.9c29.7,34.8,97,35.6,138.7,39.2C1621.9,1226.2,1660.7,1226.1,1699.2,1222.4z"/>
			<path class="st14" d="M1539.1,978.1c6.1,12.3,16.4,21.9,27.2,30.4c9.8,7.8,20.4,15,32.1,19.5c26.9,10.4,57.7,5.8,84-6
				c9.5-4.3,18.6-9.5,27.3-15.2c-7.8-6.3-15.7-12.4-23.6-18.2c-26.1-19.1-53.7-37.2-84.4-47.4c-22.2-7.4-45.8-10.4-69.1-9.1
				c-0.3,3-0.5,6.1-0.6,9.1C1531.7,953.9,1533.4,966.8,1539.1,978.1z"/>
			<path class="st14" d="M1225.3,1166.3c-8.4,5.1-15.1,14.4-14,24.2c1.2,10.8,10.9,18.4,20.3,23.9c47.6,27.9,108,32.5,159.3,12.3
				c12.4-4.9,24.5-11.4,32.8-21.7c8.3-10.4,12-25.2,6.4-37.3c-4.6-9.7-14.3-16-24.3-19.7c-15.2-5.7-31.8-6.6-48-6.6
				C1314.9,1141.4,1263.1,1143.6,1225.3,1166.3z"/>
			<g>
				<path class="st10" d="M1475,951.8c18.1,12.1,29.3,32.8,33.4,54.2s1.6,43.6-3.4,64.8c-9,38.8-26.8,76.5-55.7,104
					c-28.9,27.5-69.8,43.8-109.2,37.8c-7.8-1.2-15.6-3.2-22.7-6.8c-14-7.1-24.4-19.9-31.4-34c-20.7-41.9-11.3-94.4,15.2-132.9
					c21.4-31,52.1-53.4,85.1-70.7C1416.6,952.3,1439,927.7,1475,951.8z"/>
				<path class="st5" d="M1353.7,1197.5c25.7-4.3,48.8-18.3,69.7-34c10.5-7.9,20.8-16.5,27.9-27.6c10.4-16,13.2-35.6,15.8-54.6
					c2.5-18.2,5-36.7,2.6-55c-1.9-14.1-6.6-27.6-11.5-41c-5.3-14.6-10.8-29.1-17.2-43.3c-18.7,2.1-35,15.9-54.5,26.2
					c-33,17.3-63.7,39.7-85.1,70.7c-26.6,38.5-36,91-15.2,132.9c3.5,7.1,7.9,13.8,13.2,19.7
					C1316.4,1198.3,1335.4,1200.5,1353.7,1197.5z"/>
				
					<ellipse transform="matrix(0.5816 -0.8135 0.8135 0.5816 -425.8349 1591.9003)" class="st8" cx="1334.5" cy="1209.9" rx="39.1" ry="39.1"/>
				<path class="st5" d="M1338.4,1171c-1.6-0.2-3.3-0.2-4.9-0.2c18.9,4.3,32.2,22.1,30.2,41.9c-2,19.8-18.4,34.7-37.8,35.2
					c1.6,0.4,3.2,0.6,4.8,0.8c21.5,2.1,40.6-13.6,42.7-35C1375.5,1192.3,1359.8,1173.1,1338.4,1171z"/>
				<path class="st0" d="M1183.6,1113.4c-5.3,15.4,0.4,33.1,11.3,45.1c11,12,26.4,19.1,42.1,23.3c55.8,15.2,115.7-1.6,167.3-27.8
					c18.3-9.3,36.7-20.5,47.4-38.1c5.1-8.5,8.1-18,11-27.5c5.2-17.4,10-35.4,8.9-53.5s-9.1-36.8-24.6-46.4
					c-13.6-8.4-30.6-8.7-46.5-7.8c-41.1,2.4-82.2,11.8-118.2,31.9C1246.5,1032.6,1190,1112.2,1183.6,1113.4z"/>
				<path class="st5" d="M1223.2,1136.3c11.2,15,28.1,25,46.1,30.1c18,5,37,5.3,55.6,3.3c10-1.1,20-2.8,29.4-6.4
					c34.4-13.1,56.2-52.9,48.7-88.9c-6.7-32.3-11.3-63.2-23.5-91.8c-34,4.1-67.3,13.4-97.1,30c-35.9,20-92.4,99.7-98.7,100.8
					c-5.3,15.4,0.4,33.1,11.3,45.1c0.7,0.8,1.5,1.6,2.3,2.4C1207.6,1154.7,1216.6,1146.3,1223.2,1136.3z"/>
				<path class="st14" d="M1180.6,921.7c-0.3-4.8,0.2-10.2,3.5-13.6c4.8-4.9,13-3.6,19.6-1.5c18,5.9,34.8,15.5,49.1,28
					c4.9,4.3,9.9,10,9.3,16.6c-1.6,16.1-38.3,37.8-52.9,29.5C1192.1,971,1181.6,939.8,1180.6,921.7z"/>
				<path class="st8" d="M1252.8,934.5c-14.2-12.5-31-22.1-49.1-28c-6.6-2.1-14.7-3.4-19.6,1.5c-3.4,3.4-3.8,8.7-3.6,13.5
					c21.3,0.9,42.2,8.8,60.9,19.2c7,3.9,13.9,8.4,19.8,13.7c0.4-1.2,0.7-2.3,0.8-3.4C1262.7,944.5,1257.7,938.9,1252.8,934.5z"/>
				<path class="st0" d="M1278.1,924.3c0,0-108,16.9-108,113.8c0,0-48.4,46.3-41.9,79.5c6.4,33.2,83.3,66.2,91.4-10.2
					c0,0,50.4,81.1,140.2,44.4s35.3-97,35.3-97s61-12,65.7-60.5c4.7-48.5-101.4-139.4-124.6-129.5c-23.3,9.8-5.9,54-5.9,54
					L1278.1,924.3z"/>
				<path class="st14" d="M1395.2,1054.8c0,0,61-12,65.7-60.5c4.7-48.5-101.4-139.4-124.6-129.5c-23.3,9.8-5.9,54-5.9,54l-52.3,5.5
					c0,0-3.4,0.5-8.9,1.9c-6.4,6.9-11.4,15.3-15.2,24c-8.3,18.8-12,40-8.6,60.3c3.4,20.3,14.2,39.6,30.9,51.6
					c16.3,11.6,36.7,15.7,56.6,17.7c25.1,2.5,50.5,2.1,75.4-2C1403.6,1064.2,1395.2,1054.8,1395.2,1054.8z"/>
				<path class="st15" d="M1251.9,974.9C1251.8,975.7,1251.8,975.7,1251.9,974.9"/>
				<path class="st5" d="M1333.5,884.3c-0.1-2.4,0.3-5.3,2.6-6.1c1.7-0.7,3.5,0.3,5.1,1.2c10.4,6.3,19.9,13.9,28.4,22.6
					c2.1,2.1,4.2,4.4,5,7.3s0.1,6.4-2.5,7.9c-1.8,1.1-4.1,0.9-6.1,0.8c-6.7-0.6-21.5,0.8-26.4-4.1
					C1334,908.3,1333.6,891.6,1333.5,884.3z"/>
				<path class="st5" d="M1190.9,1056.5c-7.1-0.2-11.9,7.4-8.5,13.7c8.5,16.1,23.7,39.9,38.5,37.9c22.1-3,50.6-38.2,48.5-44.5
					C1267.7,1059,1217,1057.2,1190.9,1056.5z"/>
				<g>
					<path class="st5" d="M1273.1,1047.5c14,12.5,44.1,17.2,52.8-4.2c1.5-3.7-2.9-7.3-6.3-6.3c-6.7,1.9-12.8,5.5-19.8,6.5
						c-7.3,1-14.3,0.1-20.5-3.9C1274.5,1036.6,1268.8,1043.7,1273.1,1047.5L1273.1,1047.5z"/>
				</g>
				<g>
					<path class="st5" d="M1166,1036.4c-2.3,10.9,12.6,14.5,20.7,15c12,0.7,26.8-2.6,32.7-14.1c1.9-3.6-1.2-6.9-4.9-6.3
						c-8.3,1.2-15.8,5.4-24.1,6.5c-6.6,0.9-15.4,1.7-21.1-2.4C1168.1,1034.3,1166.2,1035.1,1166,1036.4L1166,1036.4z"/>
				</g>
				<g>
					<path class="st5" d="M1293.7,1110.6c2.3,0,4.5-2,4.4-4.4c-0.1-2.4-1.9-4.4-4.4-4.4c-2.3,0-4.5,2-4.4,4.4
						C1289.4,1108.6,1291.2,1110.6,1293.7,1110.6L1293.7,1110.6z"/>
				</g>
				<g>
					<path class="st5" d="M1307,1095.3c1.4,0,2.8-0.6,3.8-1.6c0.9-0.9,1.6-2.5,1.6-3.8c-0.1-1.4-0.5-2.8-1.6-3.8
						c-1-1-2.3-1.6-3.8-1.6c-1.4,0-2.8,0.6-3.8,1.6c-0.9,0.9-1.6,2.5-1.6,3.8c0.1,1.4,0.5,2.8,1.6,3.8
						C1304.3,1094.7,1305.6,1095.3,1307,1095.3L1307,1095.3z"/>
				</g>
				<g>
					<path class="st5" d="M1331.3,1098.6c-0.1,0.1-0.3,0.1-0.4,0.2c0.7,0.2,1.5,0.4,2.2,0.6c-0.6-0.6-1.2-1.1-2-1.3
						c-0.9-0.2-2-0.1-2.7,0.4c-1.5,1-2.2,2.8-1.5,4.4c0.7,1.6,2.5,2.6,4.2,2.1c0.9-0.3,1.7-0.8,2.1-1.6c0.4-0.7,0.5-1.5,0.5-2.3
						c-0.6,0.7-1.1,1.5-1.7,2.2c0.1-0.1,0.3-0.1,0.4-0.2c1.1-0.4,2-1.6,1.6-2.8C1333.8,1099.2,1332.5,1098.2,1331.3,1098.6
						L1331.3,1098.6z"/>
				</g>
				<g>
					<path class="st5" d="M1162.3,1125.7c0,0.2,0.1,0.4,0.1,0.6c0.1,0.3,0.3,0.7,0.4,1c0.3,0.5,0.6,0.9,1.1,1.2
						c0.7,0.5,1.6,0.9,2.5,0.9c1.9-0.1,3.4-1.3,4-3.1c0.1-0.2,0.1-0.4,0.2-0.6c1-2.7-1.5-5.5-4.2-5.5c-1.1,0-2.3,0.5-3.1,1.3
						c-0.5,0.5-0.9,1.2-1.1,1.9C1162.1,1124.2,1162.1,1125,1162.3,1125.7L1162.3,1125.7z"/>
				</g>
				<g>
					<path class="st5" d="M1191,1109.4c-0.1-0.1-0.3-0.2-0.4-0.4c-0.8-0.8-2.2-1.1-3.2-0.4c-0.1,0.1-0.3,0.2-0.4,0.3
						c-1.2,0.7-1.8,2-1.6,3.3c0.2,1.5,1.3,2.6,2.8,2.8c1.3,0.2,2.6-0.4,3.3-1.6C1192.3,1112.2,1192.1,1110.4,1191,1109.4
						L1191,1109.4z"/>
				</g>
				<g>
					<path class="st5" d="M1169.6,1096c-0.1,0-0.1,0-0.2-0.1c-2-0.7-4.9,0-6.3,1.7c0,0-0.1,0.1-0.1,0.1c-0.3,0.4-0.7,0.8-1,1.3
						c-0.5,0.7-0.7,1.5-0.7,2.3c-0.2,1.4,0.1,2.7,0.7,4c0,0,0,0.1,0.1,0.1c0.6,1,1.3,1.7,2.3,2.3c1,0.6,2.1,0.9,3.3,0.9
						c0.1,0,0.1,0,0.2,0c0.9,0,1.7-0.2,2.5-0.6c0.8-0.3,1.5-0.7,2.1-1.3c1-1.1,1.6-2.2,1.8-3.7c0.2-1.4,0-2.9-0.8-4.1
						C1172.5,1097.5,1171.2,1096.5,1169.6,1096L1169.6,1096z"/>
				</g>
			</g>
			<g>
				<g>
					<path class="st0" d="M1418,1168.4c-19,7.7-38.1,15.4-55.7,25.9c-21.8,12.9-42.7,33.1-43.3,58.4c-0.1,4,0.4,8.1,2.4,11.5
						c2.1,3.5,5.6,5.9,9.4,7.5c16.9,7.6,36.8,2.4,53.3-5.9c30.7-15.5,56.4-41.4,89.7-49.8c12.1-3.1,24.6-3.7,36.8-6.4
						c12.1-2.8,24.4-8.2,31.6-18.4c14.2-20.1-0.1-67.3-29.5-62.4c-13.4,2.2-29.1,13.1-41.8,18.2
						C1453.2,1154.1,1435.6,1161.3,1418,1168.4z"/>
				</g>
				<g>
					<path class="st14" d="M1351.5,1220.4c-13.4,2.2-29.3,14.5-33.3,27.8c-0.7,2.3,1.6,3.7,3.5,2.5c5.7-3.6,10.6-8.7,15.9-12.8
						c5.4-4.1,11.3-7.6,16.4-12C1356.4,1223.9,1354.7,1219.9,1351.5,1220.4z"/>
					<path class="st14" d="M1366.3,1243.6c-7.1-5.1-17.2-0.2-23.8,3.8c-3.8,2.3-7.4,5-11,7.6c-3.3,2.3-6.7,4.3-8.5,8
						c-0.5,1.1,0.2,2.6,1.3,3c7.2,2.4,14.8-4.3,20.9-7.4c4-2.1,8-3.6,12.3-5c3.9-1.2,6.8-2.1,9.5-5.3
						C1368.2,1247,1367.7,1244.6,1366.3,1243.6z"/>
					<path class="st14" d="M1378.8,1254.6c-14.6-4.5-28.5,10.3-39.6,17.4c-2.2,1.4,0.2,5.2,2.4,3.9c6.1-3.5,14.2-5.5,20.9-7.6
						c6.6-2.1,13.1-3.1,17.9-8.4C1381.8,1258.2,1380.8,1255.2,1378.8,1254.6z"/>
				</g>
			</g>
		</g>
		<g>
			<path class="st5" d="M1960.8,1029h-336.2c-34.1,0-64.1,22.4-73.8,55.1l-103.6,350.3c-11.2,37.7,17.1,75.6,56.5,75.6h456.1
				l85.4-375.2C2057.7,1080.6,2016.4,1029,1960.8,1029z"/>
			<path class="st10" d="M1596.6,1491.3l103.6-350.3c9.7-32.7,39.7-55.1,73.8-55.1h268.3c-12-32.7-43.3-56.9-81.4-56.9h-336.2
				c-34.1,0-64.1,22.4-73.8,55.1l-103.6,350.3c-11.2,37.7,17.1,75.6,56.5,75.6h90.4C1594,1503.9,1594.7,1497.6,1596.6,1491.3z"/>
			<path class="st12" d="M1704.7,1070.1c18.7,4.1,38.3,8.6,55.3,17c4.5-0.8,9.2-1.3,13.9-1.3h268.3c-0.4-1-0.7-1.9-1.1-2.9
				c0-0.1-0.1-0.2-0.1-0.3c-0.8-1.9-1.7-3.8-2.6-5.7c0-0.1-0.1-0.1-0.1-0.2c-0.4-0.9-0.9-1.8-1.4-2.6c0-0.1-0.1-0.1-0.1-0.2
				c-1-1.8-2.1-3.6-3.2-5.4c-0.1-0.1-0.1-0.2-0.2-0.3c-0.5-0.8-1.1-1.6-1.7-2.4c0,0-0.1-0.1-0.1-0.1c-1.2-1.7-2.4-3.3-3.8-4.9
				c-0.1-0.1-0.2-0.2-0.3-0.3c-1.3-1.6-2.7-3.1-4.1-4.6c-0.1-0.1-0.1-0.1-0.2-0.2c-0.6-0.7-1.3-1.3-1.9-2c-0.1-0.1-0.2-0.2-0.3-0.3
				c-1.5-1.4-3-2.8-4.5-4.1c-0.1-0.1-0.3-0.2-0.4-0.3c-0.7-0.6-1.4-1.1-2-1.6c-0.1-0.1-0.2-0.2-0.4-0.3c-0.8-0.6-1.6-1.2-2.5-1.8
				c0,0-0.1,0-0.1-0.1c-0.8-0.6-1.6-1.1-2.4-1.6c-0.2-0.1-0.4-0.2-0.5-0.4c-0.7-0.5-1.5-1-2.2-1.4c-0.1-0.1-0.2-0.1-0.3-0.2
				c-0.9-0.5-1.7-1-2.6-1.5c-0.1-0.1-0.3-0.2-0.4-0.2c-0.7-0.4-1.5-0.8-2.2-1.2c-0.2-0.1-0.4-0.2-0.6-0.3c-0.8-0.4-1.7-0.8-2.6-1.2
				c0,0-0.1,0-0.1-0.1c-0.9-0.4-1.8-0.8-2.8-1.2c-0.2-0.1-0.4-0.2-0.7-0.3c-0.7-0.3-1.5-0.6-2.2-0.9c-0.2-0.1-0.5-0.2-0.7-0.3
				c-0.9-0.3-1.9-0.7-2.9-1c-0.1,0-0.1,0-0.2-0.1c-0.9-0.3-1.8-0.6-2.7-0.8c-0.3-0.1-0.5-0.2-0.8-0.2c-0.8-0.2-1.5-0.4-2.3-0.6
				c-0.2-0.1-0.4-0.1-0.7-0.2c-1-0.2-2-0.5-3-0.7c-0.2,0-0.4-0.1-0.6-0.1c-0.8-0.2-1.6-0.3-2.5-0.4c-0.3,0-0.6-0.1-0.9-0.1
				c-0.9-0.1-1.7-0.3-2.6-0.4c-0.2,0-0.3,0-0.5-0.1c-1-0.1-2.1-0.2-3.1-0.3c-0.3,0-0.5,0-0.8-0.1c-0.8-0.1-1.6-0.1-2.4-0.1
				c-0.3,0-0.6,0-0.9,0c-1.1,0-2.1-0.1-3.2-0.1h-336.2c-5.3,0-10.6,0.5-15.6,1.6c-2,0.4-4,0.9-6,1.5c-2,0.6-3.9,1.2-5.8,2
				c-1.9,0.7-3.8,1.5-5.6,2.4c-0.9,0.4-1.8,0.9-2.7,1.4c-1.8,0.9-3.6,2-5.3,3c-1.7,1.1-3.4,2.2-5,3.4c-3.7,2.8-7.2,5.9-10.3,9.3
				C1613.7,1050.4,1659.9,1060.3,1704.7,1070.1z"/>
		</g>
	</g>
</g>
</svg>
