<?xml version="1.0" encoding="utf-8"?>
<!-- Generator: Adobe Illustrator 23.0.1, SVG Export Plug-In . SVG Version: 6.00 Build 0)  -->
<svg version="1.1" id="Layer_1" xmlns="http://www.w3.org/2000/svg" xmlns:xlink="http://www.w3.org/1999/xlink" x="0px" y="0px"
	 viewBox="0 0 2272 1872" style="enable-background:new 0 0 2272 1872;" xml:space="preserve">
<style type="text/css">
	.st0{fill:#95D3E4;}
	.st1{fill:#ABABAB;}
	.st2{fill:#339445;}
	.st3{fill:#F4DB9D;}
	.st4{fill:#AF8552;}
	.st5{fill:#ECF0DF;}
	.st6{fill:#BB9A6E;}
	.st7{fill:#F15A29;}
	.st8{fill:#ED1C24;}
	.st9{fill:#6DC065;}
	.st10{fill:#509947;}
	.st11{fill:#A03F22;}
	.st12{fill:#FFFFFF;}
	.st13{fill:#076936;}
	.st14{fill:#0B381E;}
	.st15{opacity:0.7;}
	.st16{clip-path:url(#SVGID_2_);fill:#22381A;}
	.st17{fill:#429945;}
	.st18{clip-path:url(#SVGID_4_);fill:#22381A;}
	.st19{fill:#73BF44;}
	.st20{clip-path:url(#SVGID_6_);fill:#22381A;}
	.st21{fill:#6EBE45;}
	.st22{clip-path:url(#SVGID_8_);fill:#22381A;}
	.st23{fill:#F3AE62;}
	.st24{fill:#CE8438;}
	.st25{fill:#595A5A;}
	.st26{fill:#9A5524;}
	.st27{fill:#706F70;}
	.st28{fill:#CCCCCC;}
	.st29{fill:#4C4B4C;}
	.st30{fill:#78CFE0;}
	.st31{fill:#1A5C87;}
	.st32{fill:#754C29;}
	.st33{fill:none;stroke:#000000;stroke-width:7;stroke-miterlimit:10;}
</style>
<path id="sky" class="st0" d="M1889.7,1221.7c-39.7-128-51.7-272.2,15.3-423.3c120-270.5,228-545.5-12-665.5s-740,48-1103.4,172
	S365,941,237,1236.6c-13,30-21.4,59.2-25.3,87.5C506,1260.2,1305.6,1119.9,1889.7,1221.7"/>
<g id="background">
	<path class="st1" d="M399.9,1633.2c148.2,86.4,379.8,145.6,685.1,167.8c609.5,44.3,874.4-259.3,857.9-426.8
		C1039.1,1281.7,567.1,1520.5,399.9,1633.2"/>
	<path class="st2" d="M1942.9,1374.2c-1.4-13.9-4.7-26.8-9.9-38.6c-16.1-36.2-31-74.3-43.3-113.9
		c-584.2-101.9-1383.7,38.5-1678.1,102.4c-17,121.9,48.5,227.6,188.3,309.1C567.1,1520.5,1039.1,1281.7,1942.9,1374.2"/>
</g>
<g id="dog">
	<path class="st3" d="M987.5,1382.5c0,0-5.3,49.5,39.9,82.4c45.1,32.9,33.3,80.2,33.3,80.2s-15.9,0-11.8,10.7
		c4.1,10.7,37.5,9,42.2,0c4.8-9,6.2-81.2-6.2-96.4C1072.4,1444,1069.5,1376.8,987.5,1382.5"/>
	<g>
		<path class="st3" d="M723.8,1323.5c0,0,36.8,57.2,36.8,96.6c0,39.4,8.5,123.5,8.5,123.5s-21.9,0.4-19.5,11.6
			c2.4,11.2,33.1,15.6,47.3,9c0,0-0.9-53.7,2.4-73.8c3.3-20.2,14.7-63.1,14.5-71.6C813.6,1410.3,801.8,1337.3,723.8,1323.5"/>
		<path class="st4" d="M636.6,1106.9c2.4,5.1,20.9,13.1,29.1,16.5l15.2-10.6c-24.1,0.2-51.3-29.1-53.2-15.8
			c-4.3,29.5,18.6,39.9,18.6,39.9l3-2.1C625.1,1125.6,633.8,1100.9,636.6,1106.9"/>
		<path class="st3" d="M636.6,1106.9c-2.8-6-11.5,18.6,12.6,27.9l16.5-11.5C657.5,1120,639,1112,636.6,1106.9"/>
		<path class="st3" d="M964.7,1151c0,0,32-19.2,2.7-44.6c3.2,8.5,5.6,18.6,1.2,23.3c-8.2,9-35.4,19.5-35.4,19.5s17.7,24.1,53.2,22.2
			c31.9-1.7,85.7-28.7,141.3,34.9C1087.5,1125.1,999.8,1161.6,964.7,1151"/>
		<path class="st5" d="M986.4,1171.4c-35.5,1.9-53.2-22.2-53.2-22.2s27.2-10.5,35.4-19.5c4.3-4.7,2-14.8-1.2-23.3
			c-0.1-0.1-0.3-0.3-0.4-0.4c-30-25.6-67.5-7.6-81.5,26.6c-14,34.2-4.6,85.4,47.9,96.1c52.5,10.7,131.7-55.8,160.9-4.5
			c21.3,37.5-7.7,82-7.7,82s62.7-42.8,47.8-84.4c-2-5.6-4.2-10.8-6.6-15.5C1072.1,1142.7,1018.4,1169.7,986.4,1171.4"/>
		<path class="st6" d="M651.8,1141.2c8.2,0,9.2,23,9.5,22c0.3-1,2-21.7,10.5-22c8.5-0.3,19.7,13,26,23c6.2,10,46.7,0,59.1,25.6
			c0,0-41.1,41.1-43.7,64.4c-1.6,13.9,16,50.9,27.7,82.6c17.1,13.6,61.3,46.4,103.1,55.7c53.2,11.8,131.4-26.3,163.6-21.7
			c28.3,4,83.9,53.6,128.6,11c0.8-8.6,0.3-18.7-2.5-31.4c-11.8-53.9-64.4-135.4-124.8-117s-168.2-9.2-184-34.2
			c-15.8-25-67-114.3-140.6-92c-37.2,11.3-45.8,30.6-45.3,47C642,1147.4,646.1,1141.2,651.8,1141.2"/>
		<path class="st5" d="M1127.2,1443.8c-9.1-23.1,6.5-34,9-61.9c-44.7,42.6-100.3-7-128.6-11c-32.2-4.6-110.4,33.5-163.6,21.7
			c-41.8-9.3-86-42.1-103.1-55.7c-11.7-31.7-29.2-68.7-27.7-82.6c2.6-23.3,43.7-64.4,43.7-64.4c-12.5-25.6-52.9-15.6-59.1-25.6
			c-6.2-10-17.4-23.3-26-23c-8.5,0.3-10.2,21-10.5,22c-0.3,1-1.3-22-9.5-22c-5.7,0-9.9,6.2-12.8,13.1c0.5,16.1,9.8,29.3,9.8,29.3
			l-38.1,42.1c19.1,42.7,63.7,16.4,63.7,16.4s16.4,3.3,21.7,51.3c4.4,39.7,28.1,56.9,54.7,82.5c5.6,5.3,11.2,11,16.9,17.4
			c32.9,36.8,21,155.1,21,155.1s-23.4,1.8-17.7,13.8c6.8,14.5,42.1,5.9,46.7,2.6c4.6-3.3-2-20.4,6.6-42.1
			c8.5-21.7,21.7-88.1,21.7-88.1c82.8,7.2,103.4-42.1,149.8-38.5c46.4,3.5,47.3,50.4,61.8,57.4c14.5,7,20.6,14.5,44.7,37.7
			c24.1,23.2,25.6,59.8,25.6,59.8s-7.2-0.3-12.5,1c-5.3,1.3-5.3,9.5-0.1,12.5c18,10.3,42.2-4.9,42.2-4.9
			C1164,1514.8,1139.1,1474,1127.2,1443.8"/>
		<path class="st6" d="M668.1,1178.8c0,0,1.2-7.7,5.9-7.9c4.8-0.2,12.8,5.3,16.6,3.9C690.6,1174.9,676.5,1188,668.1,1178.8"/>
		<path class="st6" d="M653.5,1177.7c0,0-1.4-7.2-10.4-5.1c0,0,5,9.8,4.8,9.6C647.8,1181.8,650.2,1182.3,653.5,1177.7"/>
		<path d="M622,1213.3c0,0,9.7,14.6-4.9,23.1c0,0-5.6-8.2-6.3-10.7L622,1213.3z"/>
		<path d="M680.8,1176.7c0,3-2.5,5.4-5.6,5.4c-3.1,0-5.6-2.4-5.6-5.4s2.5-5.4,5.6-5.4C678.3,1171.3,680.8,1173.7,680.8,1176.7"/>
		<path d="M648,1172.7c-1.8,0-3.2,0.8-3.8,2.4c0,0.2,3.1,6,3.1,6c0.4,0.2,0.2,0.1,0.7,0.1c2.3,0,4.2-1.9,4.2-4.2
			C652.2,1174.6,650.3,1172.7,648,1172.7"/>
		<path class="st3" d="M708.9,1098.6c-6.2-0.9-9.6,16-11,26.4c8.3,7.6,23.9,21.2,35,26.3C737,1128.6,716.8,1099.8,708.9,1098.6"/>
		<path class="st4" d="M708.9,1080.4c-9.9-0.4-16.6,39.2-16.6,39.2s2.2,2.1,5.7,5.3c1.4-10.4,4.8-27.3,11-26.4
			c7.9,1.2,28.1,30,24,52.7c5.5,2.5,9.9,3,11.7-0.6C757.8,1124.2,718.8,1080.9,708.9,1080.4"/>
		<path class="st7" d="M823.2,1195.6c0,0,8.4-8.2,13-4.4c4.6,3.8,3.8,10.5-2,14.3l-3-2.3c0,0,6.9-3.1,3.1-7.1
			c-3.8-4-8.6,1.8-8.6,1.8L823.2,1195.6z"/>
		<path class="st8" d="M685.3,1262.1c0,0,86.1-9.2,137-71l16.1,16.1c0,0-70,73.6-147.8,75.9L685.3,1262.1z"/>
	</g>
</g>
<g id="trees">
	<path class="st9" d="M342.1,943.9c0,0-146.9-106.9-144.1-295.3c2.8-188.4,296.5-376.9,350.6-512.7c0,0,129.9,322.8,130.8,464.9
		C680.2,742.8,574.9,906.7,342.1,943.9"/>
	<path class="st10" d="M271.5,641.5c-20.6-52.3-8-124.6,10.5-185.4c-47.9,62.5-83.1,127-84,191.6
		c-2.8,188.4,144.1,295.3,144.1,295.3c75-12,136.7-37.1,185.9-70.4C440.9,867.2,327.4,783.6,271.5,641.5"/>
	<path class="st11" d="M431.3,1281.5c0,0-125.3-265.6-50.4-424.3c74.8-158.7,78.7-288.9,50.4-355.5c0,0,29.9,167.7-56,320.4
		c-71.7,127.5-55.4,253.7-43,306.1c12.5,52.4,22.4,133,11.9,168.9L431.3,1281.5z"/>
	<path class="st11" d="M377.4,840.5c0,0,68.4-82,109.5-83.5c47.4-1.7,82.4,7.3,119.8-32.2c0,0-41.8,31.2-114.7,18.7
		c-23.7-4.1-65.9,21.6-89.7,48.5C381.6,815.5,377.4,840.5,377.4,840.5"/>
	<path class="st11" d="M416.2,746.3c0,0,1.4-31.9-38.8-52c-40.2-20.1-53.3-24.9-67.9-45.7c0,0,28.4,26.3,63.7,32.6
		c35.3,6.2,48.5,34.6,48.5,34.6L416.2,746.3z"/>
	<path class="st11" d="M434.2,673.5c0,0,23.6-38.8,68.6-31.9c45,6.9,67.9-40.9,67.9-40.9s-38.1,41.6-85.2,29.8
		c-47.1-11.8-51.3,27.7-51.3,27.7V673.5z"/>
	<path class="st11" d="M439.8,616c0,0-5.5-15.2-29.8-15.2c-24.2,0-38.8-27.7-44.3-40.2c0,0,30.4,37.4,56.1,33.3
		c25.7-4.1,18,6.9,18,6.9V616z"/>
</g>
<g id="cloud">
	<path class="st12" d="M986.8,635.5C986.8,635.5,986.8,635.5,986.8,635.5c-1.4-28.1-38.8-50.7-84.7-50.7
		c-36.8,0-68.1,14.5-79.8,34.7c-1.6-0.1-3.3-0.2-4.9-0.2c-24.4,0-44.2,15.7-44.2,35s19.8,35,44.2,35c12.8,0,24.3-4.3,32.4-11.2
		c14.4,7,32.6,11.2,52.3,11.2c18,0,34.7-3.5,48.4-9.4c8.7,6,21.7,9.7,36.3,9.7c26.1,0,47.2-12.1,47.2-27.1
		C1034.1,647.6,1012.9,635.5,986.8,635.5"/>
	<path class="st12" d="M1504,407c-0.5,0-1,0-1.6,0c-0.6-21.3-24.9-39-55.3-40c-31.2-0.9-57,16.2-57.7,38.2c-0.1,2,0.1,3.9,0.4,5.8
		c-19.5,1.1-34.6,8.7-34.6,17.9c0,9.9,17.7,18,39.5,18c10,0,19.2-1.7,26.2-4.5c7.2,2.6,15.3,4.2,23.8,4.5c9.6,0.3,18.7-1.1,26.7-3.9
		c8.1,4.3,19.7,6.9,32.6,6.9c24.5,0,44.3-9.6,44.3-21.5C1548.3,416.6,1528.5,407,1504,407"/>
</g>
<g id="plants">
	<path class="st13" d="M1597.9,1353.7c0,0-183-405.9-41-645.7c142-239.8,292.2,60.2,241,211.7c-39.5,116.9-82.2,437.6-82.2,437.6
		L1597.9,1353.7z"/>
	<path class="st14" d="M1634.5,1352.5c0,0-116.8-419.4,31.9-690.5c0,0-125.3,265.9-19.3,690.5H1634.5z"/>
	<g class="st15">
		<g>
			<defs>
				<rect id="SVGID_1_" x="1646.3" y="617" width="161.8" height="739"/>
			</defs>
			<clipPath id="SVGID_2_">
				<use xlink:href="#SVGID_1_"  style="overflow:visible;"/>
			</clipPath>
			<path class="st16" d="M1646.3,620.5c84.4,26.2,141.4,195.8,106.9,298c-38.1,112.6-79,414-82,436.2l44.5,1.3
				c0,0,42.7-320.6,82.2-437.6C1838.2,799.1,1753.5,587.6,1646.3,620.5"/>
		</g>
	</g>
	<path class="st17" d="M1758.6,1359.4c0,0,183-129.9,135-249.6c-48-119.7-130.8-60-150.1-29.8s-29.6,277.2-29.6,277.2L1758.6,1359.4
		z"/>
	<path class="st14" d="M1732,1356c0,0,129.2-137.2,115.3-258c0,0-14.2,142.1-125.3,259.6L1732,1356z"/>
	<g class="st15">
		<g>
			<defs>
				<rect id="SVGID_3_" x="1744.1" y="1038.2" width="156.4" height="321.3"/>
			</defs>
			<clipPath id="SVGID_4_">
				<use xlink:href="#SVGID_3_"  style="overflow:visible;"/>
			</clipPath>
			<path class="st18" d="M1892.5,1109.8c-27.7-69.1-67-78.4-99.1-68.1c27.6-1.1,57.6,15.7,80,71.6c42.9,107.1-99,222.4-129.3,245.5
				l13.4,0.7C1757.5,1359.4,1940.5,1229.5,1892.5,1109.8"/>
		</g>
	</g>
	<path class="st19" d="M1655.6,1352.5c2.5-5.5-29-304,51.2-437.4c80.3-133.5,142.8-16.4,125.8,66c-17,82.5-118.7,376-118.7,376
		L1655.6,1352.5z"/>
	<path class="st14" d="M1675.1,1353.4c0,0-37.4-330.4,108.8-442.4c0,0-137.8,126.9-99.8,445L1675.1,1353.4z"/>
	<g class="st15">
		<g>
			<defs>
				<rect id="SVGID_5_" x="1692.3" y="854.5" width="143.1" height="502.6"/>
			</defs>
			<clipPath id="SVGID_6_">
				<use xlink:href="#SVGID_5_"  style="overflow:visible;"/>
			</clipPath>
			<path class="st20" d="M1766.5,856.2c35,11,54.4,74.4,44,124.9c-16.3,78.8-109.9,350.4-118.2,374.3l21.5,1.7
				c0,0,101.7-293.6,118.7-376C1845,920.8,1814.9,842.1,1766.5,856.2"/>
		</g>
	</g>
	<path class="st21" d="M1561.4,1355.5c0,0-191.8-158.4-172.9-264.2c19-105.8,145.1-124.4,190.3,18.4
		c45.2,142.8,52.2,246.9,52.2,246.9L1561.4,1355.5z"/>
	<path class="st14" d="M1555.1,1353c0,0-107.3-105-116.2-301c0,0,23.1,174,124.1,301H1555.1z"/>
	<g class="st15">
		<g>
			<defs>
				<rect id="SVGID_7_" x="1367.7" y="1007" width="192.4" height="348.5"/>
			</defs>
			<clipPath id="SVGID_8_">
				<use xlink:href="#SVGID_7_"  style="overflow:visible;"/>
			</clipPath>
			<path class="st22" d="M1392.5,1095.8c9.8-54.5,48-85.8,88.9-83.9c-48.9-17.8-100.8,14.2-112.4,79.1
				c-19,105.8,172.9,264.2,172.9,264.2l18.2,0.3C1529.3,1329,1375.4,1191.1,1392.5,1095.8"/>
		</g>
	</g>
</g>
<g>
	<g>
		<g>
			<path class="st23" d="M1423.2,643.7c0,0-1.5,38.4,6.5,60.8c8,22.4-39.4,16.9-33.4,2.5c6-14.5,9.5-55.3,9.5-55.3L1423.2,643.7z"/>
			<path class="st24" d="M1405,659.8l17.9-9.5c0,0,0.7,20.2,1.2,24.8c0,0-4.5-8.7-19.9-8.8L1405,659.8z"/>
			<path class="st23" d="M1436.7,588.8c-8.3-6.4-35.4-13.5-41.9,0c-6.5,13.5-27.9,80.7-3,77.2c24.9-3.5,38.9-17.4,44.8-31.4
				C1442.7,620.7,1451.7,600.4,1436.7,588.8"/>
			<g>
				<path class="st23" d="M1394.2,755.8c0,0,4.5,111.6-24.4,192.3c0,0-96.8,80.2-174.7,103.5l-25.4-13.1
					c78.9-70.1,148.3-115.5,148.3-115.5s-21.8-92.9-1.2-138.3L1394.2,755.8z"/>
				<path class="st23" d="M1314.4,758.9c39-62.1,143.9-90.3,190.3-46.4c46.3,43.9-14.2,273-14.2,273h-176.4
					C1314.1,985.5,1268.1,832.8,1314.4,758.9"/>
				<path class="st25" d="M1272.9,1022.7c0,0,117.9,15.9,254-4C1526.9,1018.8,1418.5,948.3,1272.9,1022.7"/>
				<path class="st25" d="M1263.1,1283.1c0,0,101.1,12.4,144,6.3C1407.1,1289.4,1330.1,1249.3,1263.1,1283.1"/>
				<path class="st23" d="M1314.1,985.5c0,0-30.3,124.9-21.6,229.4c8.7,104.5,39.8,306.3,39.8,306.3h29.8c0,0,29.8-199,17.9-303.4
					s41.5-112,66.1-232.2H1314.1z"/>
				<path class="st23" d="M1490.5,985.5c0,0,29.9,137.7,29.4,232.2c0,0,74.9,83.8,139.9,211l-28.6,21.3c0,0-157.5-153.7-185.1-208.9
					c-26.9-53.9-58.4-152.5-66.1-255.5H1490.5z"/>
				<path class="st26" d="M1420.1,650.9l10.6,3.1c0,0,38.5-28.5,38.5-58.2c0-29.7-31.1-44.3-49.9-40.4c-18.8,4-30.1-22.6-50.6-16.2
					c-11.2,3.5-18.6,45.5,29.3,47.5c47.9,2,44.3,17,40,29.3C1433.5,628.2,1420.1,650.9,1420.1,650.9"/>
				<path class="st27" d="M1310,985.5h180.5c0,0,19.4,44.6,29.4,103c10.1,58.4,10.7,129.6,40.5,150.2c0,0-61.9-15.8-133.5,50.6
					c0,0-17.9-28-19.7-46.4l-8.1-121.9c0,0-13.2,76-4.7,116.1s12.7,52.2,12.7,52.2s-81.3-31.7-144-6.3c0,0,3-48,8.3-98.7L1310,985.5
					z"/>
				<path class="st23" d="M1195,1051.7c0,0-0.1,7.8-4.3,15.3c-3.4,6-5.2,17.7-5.2,17.7s-10.8-1.1-6.7-9.5c3.7-7.6,3.3-16.9,3.3-16.9
					s-11.1,1.6-20,12.2c-8.8,10.4-12.8,24.8-14.1,27.8c-1.9,4.2-7.4,4-7.4,4s1.2-15.2,2.2-32c1.4-22.2,26.8-31.6,26.8-31.6
					L1195,1051.7z"/>
				<path class="st12" d="M1377.3,703c0,0,0.3,19.2,35.2,16.5c34.8-2.7,36.4-30.4,36.4-30.4s67-1.2,73.3,57.4
					c6.3,58.6-4,190.7,4.7,272.2c0,0-107-64.9-254,4c0,0-12.7-205.9,38-266.9C1352.8,705.4,1377.3,703,1377.3,703"/>
				<path class="st23" d="M1502.9,712.5c0,0,50.4,99.7,57.5,185.2c0,0-54.9,113.2-116.1,166.6l-28.6-1.4
					c42.7-96.5,87.1-166.6,87.1-166.6s-58.4-75.5-58.5-125.4L1502.9,712.5z"/>
				<path class="st28" d="M1460.4,707.8c0,0,41-20.3,56.1,26c15.1,46.3,65.2,122.2,65.2,122.2s-54.9-21.8-106,37.3
					c0,0-39-88.1-39-130.8C1436.7,719.6,1460.4,707.8,1460.4,707.8"/>
				<path d="M1368.7,705.8l8.6-2.8c0,0,9.8,20.4,39.3,14.5c33.4-6.7,31.8-28.9,31.8-28.9l8.9,1.1c0,0-4.7,31.7-39.7,36.3
					C1382.7,730.6,1368.7,705.8,1368.7,705.8"/>
				<polygon class="st29" points="1347.6,781.4 1381.7,755.8 1405,755.8 1369.1,910.7 1394.4,909.6 1386.4,928.9 1322.3,927.4 
					1329.8,910 1344.1,910 1377.3,779.4 1344.1,806.8 				"/>
				<path class="st30" d="M1377.5,1574.4c-4.9,2.7-29.5,6.3-45.7,4.9c-16.1-1.4-23-6.7-37.1-3.9c-14.1,2.8-34.1,0.8-48.4-5.8
					c-14.4-6.6-16.1-10.1-16.1-10.1l0.1-11.8c0,0,24.5,12.4,55.4,10c30.9-2.4,71.2-16.1,91.8-4
					C1377.5,1553.7,1380.5,1572.7,1377.5,1574.4"/>
				<path class="st31" d="M1374.8,1553.1l-3.4-36.7c0,0-7.9-10.6-14.8,0c-6.8,10.6-31.4-15.1-31.4-15.1s-42,31-56,32.5
					c-14,1.5-36,3-39,14c-3,11,59,15.9,86.3,7.6C1343.8,1547,1374.8,1553.1,1374.8,1553.1"/>
				<path class="st30" d="M1321.3,1504.1c0,0-0.1-4.1,4-2.9c0,0,18.4,17.7,26.2,17.3c7.8-0.4,8.6-14.3,20-2.1c0,0,2,1.7,0.3,3.1
					c-1.7,1.4-5.3-4.4-7.9-4c-2.6,0.4-5.9,6.4-11.8,6.4C1340,1521.8,1321.3,1504.1,1321.3,1504.1"/>
				<path class="st30" d="M1700.8,1466.5c-2.7,5.1-22.2,22.4-37.1,30.5c-14.9,8-23.9,7.3-34.7,17.8c-10.8,10.5-29.3,20.2-45.7,22.7
					s-19.9,0.4-19.9,0.4l-6.6-10.3c0,0,28.5-3.2,54.1-23c25.6-19.8,52.9-54.9,78-56.2C1688.9,1448.4,1702.5,1463.3,1700.8,1466.5"/>
				<path class="st31" d="M1686.2,1449.4l-24-30.1c0,0-13-4.7-12.9,8.5c0.1,13.2-36.1,4.8-36.1,4.8s-18.9,51.2-30.3,60.6
					c-11.4,9.4-29.7,23.3-26,34.6c3.6,11.3,60.7-20,79.8-42.9C1655.6,1461.9,1686.2,1449.4,1686.2,1449.4"/>
			</g>
			<path class="st24" d="M1402,611.7c0,0-9.6,19-8.8,20c0.8,1.1,4.4,1.5,4.4,1.5s-2.1-1.1-2.6-2.1C1394.4,630,1402,611.7,1402,611.7
				"/>
			<path class="st32" d="M1385.5,640.6c0,0,0.3,4.7,4.9,5.7c4.6,0.9,10.6-3.1,10.6-3.1s-4.7,5.6-10.3,4.6
				C1385.2,646.7,1385.5,640.6,1385.5,640.6"/>
			<path d="M1416.6,609.4c-0.5,1.6-1.7,2.6-2.8,2.3c-1.1-0.3-1.6-1.8-1.1-3.4c0.5-1.6,1.7-2.6,2.8-2.3
				C1416.6,606.3,1417.1,607.8,1416.6,609.4"/>
			<path d="M1398.3,605.8c-0.5,1.6-1.7,2.6-2.8,2.3c-1.1-0.3-1.6-1.8-1.1-3.4c0.5-1.6,1.7-2.6,2.8-2.3
				C1398.2,602.7,1398.7,604.3,1398.3,605.8"/>
			<path d="M1410.7,602c0,0,7.4-2.7,12.3,2.1C1423,604.1,1418.8,596.8,1410.7,602"/>
			<path d="M1393.1,597.7c0,0,6.2-2,9.7,3.3C1402.8,601,1400,593.3,1393.1,597.7"/>
		</g>
		<path class="st23" d="M1444.4,1064.3c0,0-21.2,21.8-29.5,23.7c-6.7,1.5-16.6,8.1-16.6,8.1s-6.5-8.7,2.5-11.4
			c8.1-2.5,14.7-9,14.7-9s-8.7-7.1-22.5-6.5c-13.6,0.6-26.9,7.4-30,8.4c-4.4,1.4-7.9-2.8-7.9-2.8s12-9.4,25.1-20
			c17.3-14,41.4-1.6,41.4-1.6L1444.4,1064.3z"/>
	</g>
	<path class="st33" d="M834.2,1196c0,0,84.8-95.5,260.4-61.1c178,34.8,262.4-71,320.8-59.1"/>
</g>
</svg>
